Coordinates
version=1
nRows=13
nColumns=38
inDegrees=no

Units are S.I. units (second, meters, Newtons, ...)
If the header above contains a line with 'inDegrees', this indicates whether rotational values are in degrees (yes) or radians (no).

endheader
time	pelvis_tilt	pelvis_list	pelvis_rotation	pelvis_tx	pelvis_ty	pelvis_tz	hip_flexion_r	hip_adduction_r	hip_rotation_r	knee_angle_r	ankle_angle_r	subtalar_angle_r	mtp_angle_r	hip_flexion_l	hip_adduction_l	hip_rotation_l	knee_angle_l	ankle_angle_l	subtalar_angle_l	mtp_angle_l	lumbar_extension	lumbar_bending	lumbar_rotation	arm_flex_r	arm_add_r	arm_rot_r	elbow_flex_r	pro_sup_r	wrist_flex_r	wrist_dev_r	arm_flex_l	arm_add_l	arm_rot_l	elbow_flex_l	pro_sup_l	wrist_flex_l	wrist_dev_l
1.8	-2.66914	1.51287	-2.02609	0.537828	1.46332	0.93844	-0.188714	0.0377586	-0.180168	0.133703	0.195829	0	0	0.446797	-0.129709	-0.332089	0.58735	0.248423	0	0	-0.221886	-0.0638716	-0.0540254	-0.135112	-0.238401	0.102096	0.688074	0.348413	0	0	-0.134146	-0.286385	0.370317	0.68899	1.2277	0	0
1.81	-2.62	1.51281	-2.07603	0.537194	1.47319	0.93636	-0.201599	0.0347043	-0.182623	0.130309	0.207067	0	0	0.443058	-0.113778	-0.335712	0.514592	0.248129	0	0	-0.221999	-0.0673739	-0.0564576	-0.128592	-0.236253	0.0966239	0.689843	0.361283	0	0	-0.133703	-0.284663	0.372323	0.686089	1.23336	0	0
1.82	-2.49339	1.50689	-2.20267	0.536255	1.48273	0.934969	-0.215854	0.023144	-0.188015	0.128302	0.21879	0	0	0.413916	-0.0718799	-0.29532	0.387702	0.225271	0	0	-0.226025	-0.0785702	-0.0612248	-0.119739	-0.233161	0.094674	0.689853	0.365346	0	0	-0.130742	-0.283702	0.371941	0.681308	1.23691	0	0
1.83	-2.54984	1.51106	-2.14864	0.535683	1.49347	0.931984	-0.230445	0.0282809	-0.187845	0.123083	0.229008	0	0	0.423402	-0.0777174	-0.329598	0.355072	0.237721	0	0	-0.22352	-0.0736643	-0.0601106	-0.117378	-0.235654	0.0951489	0.697131	0.366866	0	0	-0.131823	-0.280761	0.372016	0.6789	1.23967	0	0
1.84	-2.47479	1.50167	-2.22718	0.53493	1.50363	0.930695	-0.250337	0.0160469	-0.189834	0.119958	0.239421	0	0	0.369001	-0.0314694	-0.251423	0.190565	0.184477	0	0	-0.230723	-0.0851955	-0.0609659	-0.109627	-0.234016	0.0953364	0.697441	0.368668	0	0	-0.12834	-0.28	0.372404	0.673507	1.24493	0	0
1.85	-2.50455	1.50034	-2.20158	0.534369	1.51445	0.928272	-0.268652	0.0152068	-0.188289	0.115738	0.248773	0	0	0.343768	-0.0180795	-0.223542	0.0957526	0.15768	0	0	-0.232746	-0.0856911	-0.0584278	-0.106585	-0.235759	0.0961695	0.703415	0.368266	0	0	-0.126872	-0.278208	0.373562	0.66932	1.24634	0	0
1.86	-2.55887	1.49854	-2.15187	0.533857	1.52568	0.925828	-0.288917	0.0154199	-0.187099	0.11161	0.257369	0	0	0.311832	-0.00790423	-0.183315	0	0.121882	0	0	-0.235369	-0.0850395	-0.0548285	-0.105005	-0.236927	0.0927484	0.709799	0.377318	0	0	-0.125639	-0.276674	0.374116	0.665487	1.2413	0	0
1.87	-2.61809	1.49829	-2.09198	0.533276	1.53621	0.923078	-0.303317	0.0207391	-0.185071	0.11534	0.265101	0	0	0.322749	-0.00937036	-0.191345	0	0.123347	0	0	-0.238203	-0.0830764	-0.0545538	-0.103317	-0.237989	0.0916673	0.716078	0.378836	0	0	-0.123035	-0.272146	0.354214	0.656934	1.29315	0	0
1.88	-2.66825	1.49793	-2.0444	0.532754	1.54718	0.920488	-0.316456	0.0212791	-0.18818	0.121464	0.27515	0	0	0.329394	-0.00968031	-0.195634	0	0.123668	0	0	-0.239464	-0.082044	-0.0518313	-0.101973	-0.239204	0.090875	0.720906	0.379851	0	0	-0.120215	-0.27062	0.351979	0.649769	1.30743	0	0
1.89	-2.71263	1.49701	-2.00263	0.532266	1.55836	0.918094	-0.330669	0.0215045	-0.186481	0.125777	0.280862	0	0	0.332862	-0.00922023	-0.19645	0	0.123705	0	0	-0.24054	-0.0819176	-0.0491097	-0.100467	-0.240077	0.0912537	0.723545	0.379098	0	0	-0.117036	-0.274158	0.371878	0.647661	1.25272	0	0
1.9	-2.74274	1.49628	-1.9749	0.531687	1.5698	0.915835	-0.3407	0.0199905	-0.191296	0.137663	0.28932	0	0	0.334104	-0.00755508	-0.194267	0	0.123994	0	0	-0.24092	-0.0825122	-0.0472378	-0.0992717	-0.240705	0.0918893	0.725639	0.379331	0	0	-0.114309	-0.274319	0.373723	0.640767	1.26401	0	0
1.91	-2.75405	1.49515	-1.96816	0.531172	1.58175	0.913778	-0.348881	0.0155578	-0.196261	0.153271	0.297885	0	0	0.331762	-0.00478979	-0.191232	0	0.124743	0	0	-0.240144	-0.084882	-0.0433408	-0.0993254	-0.241459	0.0924158	0.726943	0.378964	0	0	-0.112223	-0.274463	0.374404	0.634168	1.27686	0	0
1.92	-2.74702	1.49415	-1.97997	0.53064	1.59406	0.911839	-0.355402	0.00921475	-0.202095	0.171545	0.30602	0	0	0.326847	-0.000489504	-0.185207	0	0.125688	0	0	-0.238098	-0.0886265	-0.0391726	-0.100678	-0.241764	0.0919822	0.727883	0.378509	0	0	-0.110838	-0.275268	0.374364	0.628895	1.29061	0	0
